<svg width="760" height="560" viewBox="0 0 760 560" fill="none" xmlns="http://www.w3.org/2000/svg">
  <rect width="760" height="560" rx="40" fill="#E0EAFF"/>
  <circle cx="600" cy="124" r="72" fill="#C7D7FE"/>
  <circle cx="153" cy="445" r="90" fill="#DBEAFE"/>
  <rect x="102" y="96" width="556" height="376" rx="36" fill="#0F172A"/>
  <rect x="138" y="133" width="484" height="302" rx="28" fill="#F8FAFC"/>
  <rect x="176" y="174" width="196" height="220" rx="24" fill="#DBEAFE"/>
  <rect x="202" y="202" width="144" height="118" rx="18" fill="#1D4ED8"/>
  <path d="M230 295C246.667 281.667 263.333 281.667 280 295C296.667 308.333 313.333 308.333 330 295" stroke="#F8FAFC" stroke-width="10" stroke-linecap="round"/>
  <rect x="402" y="182" width="178" height="24" rx="12" fill="#CBD5E1"/>
  <rect x="402" y="224" width="142" height="18" rx="9" fill="#E2E8F0"/>
  <rect x="402" y="258" width="168" height="18" rx="9" fill="#E2E8F0"/>
  <rect x="402" y="300" width="116" height="52" rx="18" fill="#F97316"/>
  <path d="M140 429H620" stroke="#CBD5E1" stroke-width="10" stroke-linecap="round"/>
</svg>
